<svg width="95" height="95" viewBox="0 0 95 95" fill="none" xmlns="http://www.w3.org/2000/svg">
<path fill-rule="evenodd" clip-rule="evenodd" d="M71.5882 31.1412C67.8612 32.2303 66.5922 30.6216 66.1426 26.385C65.6702 21.957 63.6466 17.8388 60.4299 14.7593C57.2133 11.6798 53.0109 9.83744 48.5665 9.55831C44.2263 9.22403 39.8975 10.3357 36.2554 12.7198C32.6132 15.1039 29.8626 18.6264 28.4325 22.7379C27.5032 25.5856 27.2434 27.7339 30.9505 28.863C34.3578 29.9222 36.8158 32.6001 38.8742 35.4778C38.9203 35.5421 38.9671 35.607 39.0143 35.6726L39.0152 35.6738L39.0154 35.674C40.1356 37.2281 41.5007 39.1217 39.3537 40.6936C37.2302 42.2484 36.0151 40.709 34.7355 39.0879C34.6665 39.0004 34.5972 38.9126 34.5276 38.8251C27.9828 30.5916 17.7309 29.4326 10.5466 35.9974C8.31238 37.9026 6.67655 40.4131 5.83624 43.2265C4.99593 46.04 4.98699 49.0364 5.81038 51.8548C7.35916 57.94 11.4559 61.8469 17.621 63.5056C18.2771 63.6655 18.9457 63.7691 19.6194 63.8153C21.6178 63.9852 23.4265 64.7246 22.9868 67.1027C22.5556 69.4352 20.5673 69.2685 18.681 69.1104L18.5703 69.1011C9.86719 68.3917 1.7636 60.7577 0.324741 51.8448C-1.67368 39.4546 5.7105 28.923 18.0907 26.7747C20.7286 26.315 22.1974 25.6855 23.0067 22.568C24.3246 17.2754 27.3722 12.5745 31.666 9.21117C35.9598 5.84784 41.2538 4.01474 46.708 4.00271C57.9491 3.84284 67.4216 10.7673 70.689 22.0784C71.5583 25.076 72.8473 25.7455 75.6851 25.9653C90.943 27.1644 99.8658 44.3308 92.2019 57.5203C92.1233 57.6634 92.044 57.8114 91.9634 57.9619C91.0197 59.7243 89.8898 61.8344 87.3858 60.5179C85.0054 59.2665 86.0281 57.4326 86.9901 55.7075C87.1265 55.4629 87.2617 55.2206 87.3858 54.9823C93.431 43.0418 85.3573 30.5317 71.5882 31.1412ZM37.775 74.6969C39.7168 74.6969 41.6586 74.6869 43.6004 74.6769C47.484 74.6569 51.3676 74.6369 55.2512 74.6969C61.0765 74.7868 64.7836 78.6138 64.244 83.6098C63.7045 88.6059 59.1081 91.6035 53.5924 90.984C51.9038 90.7941 50.5949 90.2446 50.455 88.476C50.3151 86.7074 51.5341 85.8081 53.2627 85.6882C53.5376 85.6673 53.8142 85.6639 54.0918 85.6604H54.0919H54.092H54.0922C54.4805 85.6556 54.8708 85.6507 55.2612 85.5982C57.0298 85.4384 58.7084 84.9687 58.6285 82.7705C58.5485 80.3624 56.7999 79.9227 54.7616 79.9527H47.7671H19.7893C19.6398 79.9527 19.4881 79.9542 19.3355 79.9557H19.3349H19.3344H19.3338C17.447 79.9738 15.4112 79.9934 15.3927 77.2948C15.3746 74.6528 17.4212 74.6654 19.2326 74.6765H19.2327H19.2328H19.2328C19.4217 74.6776 19.6081 74.6788 19.7893 74.6769C25.7945 74.6969 31.7798 74.6969 37.775 74.6969ZM69.5701 47.1779C68.079 47.0979 66.5847 47.0979 65.0936 47.1779L65.0836 47.088H61.5963L61.3805 47.0845C59.3944 47.0518 57.1863 47.0153 57.0899 49.6859C56.9952 52.5002 58.9615 52.505 60.8878 52.5097C61.1979 52.5104 61.507 52.5112 61.8063 52.5237C62.7796 52.5642 63.7529 52.558 64.7263 52.5519H64.7264C65.9113 52.5443 67.0962 52.5368 68.2811 52.6136C71.7783 52.8434 73.9766 54.8818 74.0566 58.2791C74.1765 61.9162 71.9282 64.1245 68.1812 64.3443C66.7394 64.4304 65.3035 64.4354 63.8701 64.4403H63.8701H63.87C62.6412 64.4446 61.4144 64.4488 60.1875 64.5042C58.5488 64.5741 57.1799 65.3935 57.2998 67.192C57.4197 68.9906 58.5688 69.84 60.2974 69.84C63.6282 70.0054 66.9663 69.9486 70.2895 69.6701C75.8551 68.9307 79.822 63.6249 79.5622 57.8894C79.4419 55.2076 78.37 52.6564 76.5389 50.6934C74.7077 48.7304 72.2371 47.484 69.5701 47.1779ZM79.5418 80.302H71.5482C69.9095 80.302 68.5506 79.6924 68.4507 77.7839C68.3507 75.8755 69.6597 75.0761 71.3184 75.0461C74.8679 74.9995 78.4173 75.015 81.9698 75.0306H81.9707C83.7482 75.0383 85.5264 75.0461 87.3057 75.0461C89.0144 75.0461 90.3033 75.8455 90.3832 77.6341C90.4832 79.8623 88.8545 80.3419 87.0359 80.3719H79.5418V80.302ZM50.2654 64.5541H43.3209C40.8429 64.5441 38.3648 64.5341 35.8967 64.5341C34.1381 64.5441 32.3795 64.8538 32.3795 67.0721C32.3395 69.1304 33.7085 69.9098 35.6369 69.9098H50.5152C52.2238 69.9098 53.4129 69.1204 53.5128 67.3418C53.6327 65.1436 52.1239 64.5541 50.2654 64.5541Z" fill="#CDCFD9"/>
</svg>
